# xmcd
# 
# Track frame offsets:
#     150
#     14350
#     34955
#     53155
#     68740
#     87185
#     102270
#     121525
#     141675
#     160075
#     172880
#     189790
#     206830
#     221535
# 
# Disc length: 3148
# 
# Revision: 4
# Processed by: cddbd v1.5.2PL0 Copyright (c) Steve Scherf et al.
# Submitted via: fre:ac v1.0.17
# 
DISCID=bc0c4a0e
DTITLE=Diversos - A Próxima Vítima
DYEAR=0
DGENRE=
TTITLE0=Quem é Você 
TTITLE1=Sereia
TTITLE2=Pacato Cidadão
TTITLE3=Trilhas
TTITLE4=Happy Hour
TTITLE5=Ali s
TTITLE6=V tima
TTITLE7=Pare o Um Menino
TTITLE8=Alelui-me Baby
TTITLE9=Catedral
TTITLE10=Algu m Que Olhe Por Mim
TTITLE11=Io Che Amo Solo Te
TTITLE12=Esta  o S o Pailo
TTITLE13=E Lucevan Le Stelle
EXTD=
EXTT0=Simone
EXTT1=Lulu Santos
EXTT2=Skank
EXTT3=(Traces) Guilherme Arantes
EXTT4=Eduardo Dusek
EXTT5=Djavan
EXTT6=Rita Lee e Roberto De Carvalho
EXTT7=F bio Jr.
EXTT8=Bad Girls
EXTT9=(Cathedral Song) Z lia Duncan
EXTT10=(Someone To Watch Over Me]\nCauby Peixoto\nParticipa;c o Especial de Gal Costa
EXTT11=Serfio Endrigo
EXTT12=Adriana Ribeiro\nParticipa  o Especial De Dem nios Da Garoa
EXTT13=Fernando Portari
PLAYORDER=
